<svg width="17" height="16" viewBox="0 0 17 16" fill="none" xmlns="http://www.w3.org/2000/svg">
<path fill-rule="evenodd" clip-rule="evenodd" d="M11.5943 0C14.0934 0 16.1194 2.02594 16.1194 4.52507V11.3911C16.1194 13.8902 14.0934 15.9162 11.5943 15.9162H4.64445C2.14532 15.9162 0.119385 13.8902 0.119385 11.3911V4.52506C0.119385 2.02594 2.14532 0 4.64445 0H11.5943ZM10.6388 12.6497C10.1064 12.9044 9.55337 13.0994 8.96172 13.2346C7.56549 13.5395 6.21801 13.4378 4.90389 12.9147C4.52184 12.7626 4.15325 12.5822 3.80396 12.3643C3.65621 12.2721 3.6028 12.1341 3.68966 11.9751C3.77667 11.8158 3.91991 11.7949 4.0787 11.8621C4.10954 11.8751 4.13843 11.8928 4.16731 11.9106C4.17446 11.915 4.18162 11.9194 4.1888 11.9237C4.1938 11.9267 4.19881 11.9297 4.20385 11.9326C5.22652 12.5244 6.32688 12.842 7.50702 12.8288C8.46019 12.8181 9.37584 12.6019 10.2402 12.1923C10.8488 11.9039 11.4759 11.6779 12.1373 11.5503C12.3328 11.5125 12.5201 11.4464 12.6896 11.3384C12.9689 11.1604 13.0766 10.8898 13.0212 10.5592C12.9949 10.4022 12.9398 10.2563 12.8846 10.1102C12.8649 10.0579 12.8451 10.0055 12.8266 9.95252C12.0825 7.81941 10.8751 5.94415 9.60979 4.10223C9.38964 3.78177 9.06526 3.61205 8.67785 3.56396C8.34878 3.52312 8.02012 3.4789 7.69146 3.43469L7.69142 3.43468C7.5334 3.41342 7.37537 3.39216 7.2173 3.37128C6.97395 3.33912 6.73231 3.49393 6.67486 3.74082C6.63041 3.93186 6.59848 4.12592 6.56656 4.31989L6.56656 4.3199L6.56656 4.31991C6.55722 4.37665 6.54788 4.43338 6.53824 4.49003C6.48497 4.80285 6.69813 5.01992 7.0037 4.95294C7.34042 4.87913 7.67553 4.79774 8.0106 4.71636L8.23876 4.66104C8.45297 4.60928 8.58273 4.67573 8.6433 4.88984C8.70931 5.1232 8.76938 5.35828 8.82944 5.59332L8.82944 5.59333L8.82946 5.59339L8.86356 5.72668L8.94524 6.04466L8.94525 6.04471C9.06502 6.51064 9.18479 6.97657 9.29986 7.44368C9.34633 7.63232 9.26218 7.77823 9.10649 7.81635C8.9405 7.857 8.81404 7.77712 8.75127 7.58821C8.7354 7.54045 8.72323 7.49143 8.71106 7.44243L8.71104 7.44233C8.70664 7.4246 8.70224 7.40687 8.69766 7.38921C8.65407 7.22091 8.61015 7.05268 8.56623 6.88446L8.56621 6.88439C8.44533 6.42134 8.32444 5.95829 8.21025 5.49357C8.16952 5.3278 8.1061 5.285 7.93947 5.33278C7.65787 5.41351 7.37009 5.47382 7.08298 5.5333C6.44241 5.666 5.85368 5.09766 5.95697 4.44888C5.99473 4.21172 6.03475 3.97481 6.08004 3.73902C6.19979 3.11552 6.60283 2.7712 7.23221 2.80441C7.47572 2.81726 7.71797 2.85181 7.96033 2.88637L7.96034 2.88637C8.15728 2.91446 8.35429 2.94255 8.5521 2.95902C9.26074 3.01802 9.80502 3.33403 10.2057 3.92749C11.0401 5.16334 11.8368 6.42149 12.5156 7.75239C12.9065 8.51894 13.2364 9.31247 13.5075 10.1282C13.702 10.7136 13.6663 11.2737 13.1571 11.7107C12.9014 11.9301 12.5948 12.0489 12.2693 12.113C11.7033 12.2244 11.1595 12.4007 10.6388 12.6497ZM9.57383 8.96434C9.20748 8.52929 8.80843 8.15661 8.29558 7.93019C7.36841 7.52085 6.47194 7.65383 5.6305 8.15355C5.32108 8.33731 5.10957 8.39545 4.79343 8.16232C4.40967 7.87935 3.93711 7.77962 3.45807 7.75592C3.37569 7.75185 3.29391 7.75601 3.22009 7.80144C3.10853 7.87012 3.05961 7.97186 3.0837 8.09884C3.10778 8.22583 3.1886 8.30249 3.31996 8.32154C3.38716 8.33128 3.45469 8.33889 3.52222 8.3465L3.52225 8.34651C3.70531 8.36714 3.88835 8.38776 4.0647 8.45085C4.39061 8.56744 4.68439 8.73686 4.94335 8.96825C5.13266 9.13741 5.22324 9.13922 5.42471 8.97991C5.90717 8.59845 6.43897 8.32555 7.05918 8.2802C7.88058 8.22014 8.50193 8.6108 9.02146 9.20737C9.22464 9.44068 9.39659 9.6972 9.56043 9.95981C9.68076 10.1527 9.83891 10.2041 9.9873 10.1104C10.1345 10.0174 10.1568 9.85219 10.0468 9.65562C9.91229 9.41517 9.74971 9.194 9.57383 8.96434ZM7.57215 11.865C7.02258 12.015 6.47023 12.0454 5.89861 11.8926C5.69797 11.8354 5.51909 11.7682 5.34843 11.6803C5.08494 11.5446 4.84474 11.375 4.64394 11.1555C4.48681 10.9837 4.48371 10.8266 4.62008 10.7032C4.74139 10.5935 4.90867 10.6135 5.05699 10.7556C5.05864 10.7572 5.06022 10.7589 5.06178 10.7605C5.06489 10.7639 5.06792 10.7673 5.07121 10.7705C5.46685 11.1488 5.93131 11.3675 6.48088 11.3985C6.87452 11.4207 7.25548 11.3677 7.63039 11.2457C7.80297 11.1896 7.96498 11.275 8.007 11.4328C8.05154 11.6001 7.96862 11.7125 7.82413 11.7801C7.74427 11.8175 7.6576 11.8417 7.57215 11.865Z" fill="#870808"/>
</svg>
