<svg width="361" height="62" viewBox="0 0 361 62" fill="none" xmlns="http://www.w3.org/2000/svg">
<path d="M110.596 56.702H76.5695L85.1778 7.8989H119.204L117.306 18.4729H95.4807L93.9217 27.6235H111.952L110.054 38.1975H92.0238L90.6681 46.128H112.494L110.596 56.702ZM142.534 56.702L142.941 46.0602H131.621L128.3 56.702H115.354L132.773 7.8989H155.142L155.413 56.702H142.534ZM139.755 19.7608L134.4 36.9774H143.28L144.025 19.7608H139.755ZM174.31 42.8066C174.31 45.9246 176.546 47.4836 181.02 47.4836C185.539 47.4836 187.798 46.0828 187.798 43.2811C187.798 41.7899 187.03 40.5698 185.494 39.6209C183.957 38.6719 182.082 37.8812 179.868 37.2485C177.699 36.6159 175.507 35.8929 173.293 35.0795C171.124 34.2209 169.271 32.9105 167.735 31.1481C166.198 29.3406 165.43 27.1038 165.43 24.4377C165.43 13.0955 172.728 7.42442 187.324 7.42442C192.656 7.42442 196.678 8.44115 199.389 10.4746C202.145 12.4629 203.524 15.242 203.524 18.8118C203.524 20.1223 203.343 21.3875 202.981 22.6076C202.665 23.7825 202.326 24.6185 201.965 25.1155L201.422 25.9289H189.425C190.419 24.8896 190.916 23.5791 190.916 21.9976C190.916 19.0603 188.996 17.5917 185.155 17.5917C180.32 17.5917 177.902 19.1281 177.902 22.2009C177.902 23.7373 178.67 24.9574 180.207 25.8611C181.743 26.7649 183.596 27.4879 185.765 28.0302C187.979 28.5272 190.193 29.1599 192.407 29.9281C194.622 30.6963 196.497 31.9841 198.033 33.7916C199.57 35.554 200.338 37.8586 200.338 40.7054C200.338 46.4443 198.621 50.7146 195.186 53.5162C191.752 56.2727 186.465 57.6509 179.325 57.6509C172.186 57.6509 167.305 56.3856 164.685 53.8551C162.741 51.9572 161.77 49.3363 161.77 45.9924C161.77 44.7271 161.905 43.3489 162.177 41.8577L162.38 40.7732H174.581L174.445 41.5866C174.355 42.0385 174.31 42.4451 174.31 42.8066ZM226.984 25.0478L238.439 7.8989H250.64L229.763 37.9263L226.442 56.702H214.173L217.495 37.9263L207.192 7.8989H220.138L225.425 25.0478H226.984Z" fill="#525252"/>
<path d="M280.434 38.8075H262.404L259.286 56.702H247.017L255.626 7.8989H289.652L287.754 18.4729H265.929L264.234 28.2335H282.264L280.434 38.8075ZM308.602 7.8989L300.061 56.702H287.793L296.401 7.8989H308.602ZM357.965 18.4729H341.291L334.58 56.702H322.312L329.022 18.4729H312.28L314.178 7.8989H359.863L357.965 18.4729Z" fill="#870808"/>
<path fill-rule="evenodd" clip-rule="evenodd" d="M54.8157 0C58.5592 0 61.5939 3.0347 61.5939 6.7782V54.493C61.5939 58.2365 58.5592 61.2712 54.8157 61.2712H6.7781C3.0346 61.2712 -0.000106812 58.2365 -0.000106812 54.493V6.7782C-0.000106812 3.03471 3.0346 0 6.7781 0H54.8157ZM40.4957 48.697C38.4459 49.6772 36.3172 50.4282 34.0395 50.9484C28.6645 52.1224 23.4773 51.731 18.4184 49.717C16.9477 49.1315 15.5287 48.437 14.1841 47.598C13.6153 47.2432 13.4097 46.7119 13.7441 46.0998C14.079 45.4866 14.6304 45.4063 15.2417 45.6648C15.3605 45.715 15.4717 45.7833 15.5829 45.8516C15.6296 45.8803 15.6763 45.909 15.7235 45.9363C19.6604 48.2145 23.8964 49.4371 28.4395 49.3862C32.1088 49.3452 35.6337 48.5128 38.9613 46.9361C41.3042 45.826 43.7181 44.956 46.2645 44.4645C47.017 44.3192 47.7381 44.0648 48.3905 43.6489C49.4655 42.9637 49.8803 41.922 49.6669 40.6491C49.5656 40.0449 49.3535 39.4833 49.1412 38.9209L49.1412 38.9208C49.0651 38.7192 48.989 38.5176 48.9179 38.3138C46.0534 30.1021 41.4055 22.883 36.5343 15.7923C35.6868 14.5587 34.4381 13.9053 32.9467 13.7202C31.6799 13.563 30.4146 13.3928 29.1494 13.2225C28.541 13.1407 27.9327 13.0588 27.3242 12.9784C26.3873 12.8547 25.4571 13.4506 25.236 14.4011C25.0648 15.1365 24.9419 15.8835 24.8191 16.6302C24.7831 16.8487 24.7472 17.0671 24.71 17.2852C24.505 18.4895 25.3255 19.3251 26.5019 19.0673C27.7981 18.7831 29.0881 18.4698 30.3779 18.1566L30.3781 18.1565C30.6708 18.0854 30.9636 18.0143 31.2564 17.9436C32.081 17.7443 32.5806 18.0001 32.8137 18.8243C33.0679 19.7228 33.2991 20.6278 33.5304 21.5327L33.5304 21.5329L33.5307 21.5342C33.5743 21.7048 33.6179 21.8754 33.6616 22.0459C33.7661 22.4529 33.8707 22.86 33.9753 23.267L33.976 23.2697L33.976 23.2697L33.976 23.2698C34.4371 25.0636 34.8982 26.8574 35.3412 28.6557C35.5201 29.3819 35.1962 29.9436 34.5968 30.0903C33.9578 30.2468 33.471 29.9393 33.2294 29.212C33.1683 29.0282 33.1214 28.8395 33.0746 28.6508C33.0576 28.5824 33.0406 28.5141 33.023 28.446C32.8552 27.7981 32.6861 27.1506 32.5171 26.503C32.0517 24.7203 31.5863 22.9376 31.1467 21.1485C30.9899 20.5103 30.7457 20.3456 30.1042 20.5295C29.0202 20.8403 27.9123 21.0724 26.8071 21.3014C24.3411 21.8123 22.0748 19.6244 22.4724 17.1268C22.6177 16.2138 22.7718 15.3018 22.9461 14.3941C23.4071 11.9939 24.9587 10.6684 27.3816 10.7962C28.319 10.8457 29.2516 10.9787 30.1845 11.1117C30.9427 11.2199 31.7011 11.328 32.4626 11.3914C35.1906 11.6186 37.2859 12.8351 38.8284 15.1197C42.0406 19.8772 45.1075 24.7206 47.7205 29.8441C49.2254 32.795 50.4955 35.8498 51.539 38.9902C52.2878 41.2436 52.1505 43.3999 50.1903 45.082C49.2059 45.9268 48.0254 46.3842 46.7726 46.6307C44.5937 47.0595 42.5002 47.7385 40.4957 48.697ZM36.3959 34.5095C34.9856 32.8347 33.4494 31.4 31.4751 30.5284C27.9059 28.9526 24.4548 29.4645 21.2156 31.3882C20.0244 32.0956 19.2102 32.3194 17.9932 31.422C16.5158 30.3326 14.6967 29.9487 12.8526 29.8575C12.5354 29.8418 12.2206 29.8578 11.9364 30.0327C11.507 30.2971 11.3186 30.6888 11.4113 31.1776C11.5041 31.6665 11.8152 31.9616 12.3209 32.0349C12.5796 32.0724 12.8396 32.1017 13.0996 32.131H13.0997C13.8043 32.2104 14.509 32.2899 15.1878 32.5327C16.4425 32.9815 17.5734 33.6337 18.5703 34.5245C19.2991 35.1757 19.6478 35.1827 20.4234 34.5694C22.2806 33.1009 24.3279 32.0504 26.7154 31.8758C29.8775 31.6446 32.2695 33.1485 34.2695 35.445C35.0517 36.3432 35.7136 37.3307 36.3443 38.3416C36.8076 39.0842 37.4164 39.2821 37.9876 38.9213C38.5541 38.5633 38.64 37.9273 38.2167 37.1706C37.6989 36.245 37.073 35.3936 36.3959 34.5095ZM28.6902 45.6761C26.5746 46.2533 24.4482 46.3706 22.2477 45.7823C21.4753 45.5619 20.7867 45.3033 20.1297 44.9649C19.1153 44.4425 18.1907 43.7896 17.4177 42.9446C16.8128 42.2833 16.8008 41.6785 17.3258 41.2036C17.7928 40.7812 18.4368 40.8584 19.0078 41.4054C19.0172 41.4145 19.0261 41.4242 19.035 41.4339C19.044 41.4436 19.0529 41.4534 19.0625 41.4626C20.5856 42.9188 22.3736 43.7608 24.4892 43.8801C26.0046 43.9655 27.4711 43.7618 28.9144 43.2921C29.5787 43.0759 30.2024 43.4046 30.3642 44.0121C30.5356 44.6561 30.2164 45.0888 29.6602 45.3491C29.3528 45.493 29.0191 45.5864 28.6902 45.6761Z" fill="#870808"/>
</svg>
